<?xml version="1.0" encoding="UTF-8"?>
<svg version="1.1" xmlns="http://www.w3.org/2000/svg" width="163" height="151">
<path d="M0 0 C1.01642578 -0.01611328 2.03285156 -0.03222656 3.08007812 -0.04882812 C19.4817111 -0.05928168 32.9219142 6.22523872 44.4921875 17.58203125 C45.38164062 18.48308594 46.27109375 19.38414063 47.1875 20.3125 C47.89132813 21.01761719 48.59515625 21.72273438 49.3203125 22.44921875 C62.92788583 36.96985436 63.9320728 55.53349163 63.36669922 74.37646484 C63.0146739 80.14411665 61.56560755 85.03444311 59.1875 90.3125 C58.78660156 91.30765625 58.38570313 92.3028125 57.97265625 93.328125 C50.69749891 109.77630681 36.58675813 120.45863123 20.3515625 127.18359375 C6.08322003 132.27439742 -13.28621301 130.85705933 -26.98828125 124.94140625 C-43.53479091 116.83342208 -55.68502765 102.70771316 -61.8125 85.3125 C-67.05292732 68.48797018 -65.03866306 49.99182164 -57.3125 34.2578125 C-48.10042035 17.49694535 -34.35742392 6.87622213 -16.15234375 1.1640625 C-10.81262057 -0.0854837 -5.45804476 -0.01710986 0 0 Z " fill="#105690" transform="translate(83.8125,10.6875)"/>
<path d="M0 0 C10.08203081 3.41685846 16.23049045 9.88718635 21.15234375 19.08203125 C22 21 22 21 22 23 C23.65 23 25.3 23 27 23 C25.92939732 30.27675262 18.20902146 36.21233586 12.8125 40.6875 C-3.88444284 53.04909628 -21.60870793 54.86457304 -41.77734375 52.5703125 C-54.75615164 49.74807508 -64.80297507 42.16016311 -74 33 C-71.04909984 32.13484972 -68.56457712 31.94502454 -65.5 32.0625 C-51.58003404 32.16485269 -40.42173779 28.86400526 -30.2265625 19.31640625 C-27.95531119 17.02492966 -27.95531119 17.02492966 -25.95703125 14.4375 C-24.12568074 12.15653649 -22.28197408 10.33174422 -20.0625 8.4375 C-19.37027344 7.84582031 -18.67804688 7.25414063 -17.96484375 6.64453125 C-11.69804069 1.39935414 -8.28603596 -1.0955701 0 0 Z " fill="#409FC3" transform="translate(110,87)"/>
<path d="M0 0 C7.58131537 5.83928518 12.94627801 12.48002038 16.1875 21.5 C13.72827689 20.62737245 11.48783151 19.69918036 9.30859375 18.25390625 C2.82032428 14.03593365 -3.17599007 13.16433667 -10.8125 14.5 C-19.46642047 18.30486421 -24.80815215 27.6011484 -29.25 35.5 C-33.87094985 43.56099029 -39.08004446 50.78841146 -47.76953125 54.6953125 C-57.01440844 57.14004254 -66.7307932 56.04083707 -75.8125 53.5 C-76.1425 54.49 -76.4725 55.48 -76.8125 56.5 C-80.94675626 43.50112916 -82.38144144 32.11358421 -80.8125 18.5 C-80.4825 18.5 -80.1525 18.5 -79.8125 18.5 C-79.8125 26.09 -79.8125 33.68 -79.8125 41.5 C-68.00161897 41.81356321 -60.73282153 41.90760827 -51.7109375 33.62890625 C-48.99024367 30.57792243 -47.28215081 27.23852496 -45.4375 23.609375 C-39.90987529 13.03247772 -33.84146132 3.01448066 -22.8125 -2.5 C-15.28965303 -4.42626532 -6.68254135 -4.19547379 0 0 Z " fill="#F7F9FA" transform="translate(100.8125,45.5)"/>
<path d="M0 0 C1.65 0 3.3 0 5 0 C4.34 1.32 3.68 2.64 3 4 C3.33 4.33 3.66 4.66 4 5 C4.04063832 6.66617115 4.042721 8.33388095 4 10 C1.16625119 6.79663178 0.4794463 4.21912747 0 0 Z " fill="#3F699B" transform="translate(25,99)"/>
<path d="M0 0 C0.99 0.33 1.98 0.66 3 1 C-0.465 3.97 -0.465 3.97 -4 7 C-3.04065919 3.16263678 -2.76390737 2.40339772 0 0 Z " fill="#0C4587" transform="translate(83,64)"/>
<path d="M0 0 C0.66 0.99 1.32 1.98 2 3 C0.35 4.98 -1.3 6.96 -3 9 C-3.33 8.01 -3.66 7.02 -4 6 C-3.34 6 -2.68 6 -2 6 C-1.34 4.02 -0.68 2.04 0 0 Z " fill="#62AECC" transform="translate(133,112)"/>
</svg>
